<mxfile host="app.diagrams.net" modified="2024-01-09T11:50:37.171Z" agent="Mozilla/5.0 (Macintosh; Intel Mac OS X 10_15_7) AppleWebKit/537.36 (KHTML, like Gecko) Chrome/101.0.0.0 Safari/537.36" version="22.1.17" etag="xLTHx-esVAtnCuHAAQYt" type="github">
  <diagram name="페이지-1" id="uvux3JhOdQyoo9na7Uta">
    <mxGraphModel>
      <root>
        <mxCell id="0" />
        <mxCell id="1" parent="0" />
      </root>
    </mxGraphModel>
  </diagram>
</mxfile>
